<!DOCTYPE svg PUBLIC "-//W3C//DTD SVG 1.1//EN" "http://www.w3.org/Graphics/SVG/1.1/DTD/svg11.dtd">

<!-- Uploaded to: SVG Repo, www.svgrepo.com, Transformed by: SVG Repo Mixer Tools -->
<svg fill="lightgrey" width="800px" height="800px" viewBox="0 0 32 32" version="1.1" xmlns="http://www.w3.org/2000/svg" stroke="lightgrey">

<g id="SVGRepo_bgCarrier" stroke-width="0"/>

<g id="SVGRepo_tracerCarrier" stroke-linecap="round" stroke-linejoin="round"/>

<g id="SVGRepo_iconCarrier"> <title>arrow-trend-up</title> <path d="M31.246 1.981c-0.009-0.112-0.031-0.217-0.065-0.315l0.003 0.009c-0.010-0.066-0.024-0.123-0.041-0.179l0.002 0.009c-0.032-0.056-0.065-0.104-0.101-0.149l0.002 0.003c-0.052-0.096-0.112-0.18-0.181-0.254l0.001 0.001-0.011-0.016c-0.044-0.032-0.093-0.063-0.145-0.091l-0.006-0.003c-0.072-0.058-0.153-0.109-0.239-0.15l-0.007-0.003c-0.078-0.026-0.169-0.045-0.264-0.054l-0.005-0c-0.054-0.016-0.118-0.030-0.183-0.038l-0.006-0.001h-7.070c-0.69 0-1.25 0.56-1.25 1.25s0.56 1.25 1.25 1.25v0h4.181l-10.618 11.307-6.678-2.284c-0.121-0.043-0.26-0.068-0.406-0.068-0.505 0-0.94 0.3-1.136 0.732l-0.003 0.008-7.411 16.544c-0.069 0.15-0.11 0.326-0.11 0.512 0 0.69 0.56 1.25 1.25 1.25 0.505 0 0.94-0.3 1.137-0.731l0.003-0.008 6.945-15.505 6.361 2.176c0.121 0.043 0.26 0.068 0.406 0.068 0.359 0 0.682-0.152 0.909-0.394l0.001-0.001 10.987-11.698v3.914c0 0.69 0.56 1.25 1.25 1.25s1.25-0.56 1.25-1.25v0-7.071z"/> </g>

</svg>